PathFileType	4	(X/Y/Z)	./motion_analysis/DM_ngait_tm_slow1_new.trc
DataRate	CameraRate	NumFrames	NumMarkers	Units	OrigDataRate	OrigDataStartFrame	OrigNumFrames
120	120	4	68	mm	120	594	1585
Frame#	Time	Sternum			Neck			R_Shoulder			L_Shoulder			Xiphoid			Thoracic			R_Asis			L_Asis			R_Psis			L_Psis			Lumbar			R_Elbow			R_ElbowMedial			R_ShoulderAnterior			R_ShoulderPosterior			R_Wrist			R_Radius			R_Ulna			L_Elbow			L_ElbowMedial			L_ShoulderAnterior			L_ShoulderPosterior			L_Wrist			L_Ulna			L_Radius			L_Thigh_Superior			L_Thigh_Inferior			L_Thigh_Lateral			L_Knee_Lateral			L_Knee_Medial			L_Patella			L_Shank_Superior			L_Shank_Inferior			L_Shank_Lateral			L_Ankle_Lateral			L_Ankle_Medial			R_Thigh_Superior			R_Thigh_Inferior			R_Thigh_Lateral			R_Knee_Lateral			R_Knee_Medial			R_Patella			R_Shank_Superior			R_Shank_Inferior			R_Shank_Lateral			R_Ankle_Lateral			RankleMedial			R_Heel			R_Toe			R_Midfoot_Medial			R_Midfoot_Lateral			R_Hindfoot			R_Midfoot_Superior			R_ToeMedial			R_ToeLateral			L_Heel			L_Toe			L_Midfoot_Medial			L_Midfoot_Lateral			L_Hindfoot			L_Midfoot_Superior			L_ToeMedial			L_ToeLateral			Oglobal			Sacral			Xglobal			Yglobal			Zglobal			
		X1	Y1	Z1	X2	Y2	Z2	X3	Y3	Z3	X4	Y4	Z4	X5	Y5	Z5	X6	Y6	Z6	X7	Y7	Z7	X8	Y8	Z8	X9	Y9	Z9	X10	Y10	Z10	X11	Y11	Z11	X12	Y12	Z12	X13	Y13	Z13	X14	Y14	Z14	X15	Y15	Z15	X16	Y16	Z16	X17	Y17	Z17	X18	Y18	Z18	X19	Y19	Z19	X20	Y20	Z20	X21	Y21	Z21	X22	Y22	Z22	X23	Y23	Z23	X24	Y24	Z24	X25	Y25	Z25	X26	Y26	Z26	X27	Y27	Z27	X28	Y28	Z28	X29	Y29	Z29	X30	Y30	Z30	X31	Y31	Z31	X32	Y32	Z32	X33	Y33	Z33	X34	Y34	Z34	X35	Y35	Z35	X36	Y36	Z36	X37	Y37	Z37	X38	Y38	Z38	X39	Y39	Z39	X40	Y40	Z40	X41	Y41	Z41	X42	Y42	Z42	X43	Y43	Z43	X44	Y44	Z44	X45	Y45	Z45	X46	Y46	Z46	X47	Y47	Z47	X48	Y48	Z48	X49	Y49	Z49	X50	Y50	Z50	X51	Y51	Z51	X52	Y52	Z52	X53	Y53	Z53	X54	Y54	Z54	X55	Y55	Z55	X56	Y56	Z56	X57	Y57	Z57	X58	Y58	Z58	X59	Y59	Z59	X60	Y60	Z60	X61	Y61	Z61	X62	Y62	Z62	X63	Y63	Z63	X64	Y64	Z64	X65	Y65	Z65	X66	Y66	Z66	X67	Y67	Z67	X68	Y68	Z68	

595	4.958333	-769.819	1391.02	418.362	-622.909	1482.3	381.064	-735.967	1401	235.992	-651.72	1454.96	571.362	-775.794	1221.14	429.691	-521.446	1300.96	394.913	-701.6	994.9160000000001	301.677	-674.0069999999999	1006.54	579.447	-492.374	1055.16	390.897	-487.345	1059.85	468.609	-495.756	1106.81	422.941	-720.442	1083.74	147.917	-0	0	0	-0	0	0	-0	0	0	-841.739	844.058	219.273	-829.682	858.394	261.084	-799.032	838.201	196.814	-542.9640000000001	1135.56	670.3150000000001	-0	0	0	-0	0	0	-0	0	0	-577.48	869.313	689.885	-530.865	881.5700000000001	690.1559999999999	-589.971	882.092	645.624	-629.6	844.284	621.7670000000001	-702.974	630.4589999999999	585.557	-727.0650000000001	723.745	555.032	-0	0	0	-0	0	0	-769.3440000000001	556.41	530.61	-698.054	480.327	591.018	-719.561	208.768	594.42	-755.977	341.742	529.421	-0	0	0	-0	0	0	-591.162	818.843	275.413	-589.119	603.9829999999999	320.088	-676.686	658.855	365.223	-0	0	0	-0	0	0	-654.672	511.763	395.105	-0	0	0	-488.412	208.602	334.441	-572.351	324.411	399.947	-0	0	0	-0	0	0	-387.638	79.40179999999999	393.132	-686.324	66.3021	371.417	-611.927	44.281	428.869	-593.072	43.3077	313.128	-483.256	43.1695	332.885	-549.915	133.115	379.241	-655.352	55.079	417.819	-642.763	54.3056	325.211	-679.009	78.61490000000001	533.569	-968.989	120.631	584.996	-904.669	89.74250000000001	522.551	-874.513	80.9222	632.6369999999999	-771.717	57.9118	605.378	-827.303	161.671	568.365	-942.0940000000001	97.4423	536.951	-928.341	94.04170000000001	631.259	-0	0	0	-489.859	1057.51	429.753	-200	0	0	-0	0	200	-0	200	0	
596	4.966667	-770.079	1390.42	419.156	-623.13	1481.99	381.965	-735.897	1400.48	236.817	-652.326	1454.59	572.391	-775.826	1220.52	430.453	-521.509	1300.8	396.157	-701.008	994.694	302.267	-673.8339999999999	1005.8	580.203	-492.014	1055.08	391.937	-487.132	1059.68	469.709	-495.526	1106.69	424.113	-720.418	1083.26	148.913	-0	0	0	-0	0	0	-0	0	0	-841.253	843.2	220.219	-829.045	857.522	262.086	-798.578	837.4880000000001	197.622	-543.2809999999999	1135.23	671.3390000000001	-0	0	0	-0	0	0	-0	0	0	-577.073	868.828	690.285	-530.505	881.241	690.788	-589.441	881.688	646.134	-628.688	843.5650000000001	622.539	-701.2	629.547	585.975	-725.5549999999999	722.645	555.75	-0	0	0	-0	0	0	-768.228	557.151	529.644	-698.364	480.033	590.463	-726.479	208.903	593.991	-759.732	342.753	529.187	-0	0	0	-0	0	0	-589.954	818.7619999999999	275.92	-587.033	603.855	320.464	-674.851	658.342	365.676	-0	0	0	-0	0	0	-652.162	511.284	395.288	-0	0	0	-484.691	208.91	334.514	-568.921	324.055	399.535	-0	0	0	-0	0	0	-383.546	79.711	393.01	-682.148	66.2623	371.392	-607.891	44.6702	428.472	-588.775	42.9578	312.783	-479.096	43.1777	332.872	-545.353	133.065	378.449	-651.17	55.1177	417.878	-638.509	54.3479	325.023	-689.124	78.1296	533.283	-978.128	125.835	585.134	-914.538	93.55289999999999	522.4160000000001	-884.476	84.2499	632.4880000000001	-782.044	59.1113	605.204	-835.677	163.969	568.09	-951.8099999999999	102.891	536.691	-938.076	98.60120000000001	631.5549999999999	-0	0	0	-489.573	1057.38	430.823	-200	0	0	-0	0	200	-0	200	0	
597	4.975	-770.348	1389.84	420.032	-623.458	1481.68	383.096	-735.8390000000001	1399.93	237.791	-653.056	1454.06	573.471	-775.8630000000001	1219.92	431.177	-521.5839999999999	1300.6	397.504	-700.369	994.203	302.793	-673.818	1005.29	580.927	-491.693	1054.94	392.97	-486.979	1059.44	470.789	-495.329	1106.49	425.189	-720.277	1082.73	149.94	-0	0	0	-0	0	0	-0	0	0	-840.693	842.338	221.085	-828.3150000000001	856.711	263.011	-798.039	836.9109999999999	198.305	-543.643	1134.89	672.3339999999999	-0	0	0	-0	0	0	-0	0	0	-576.784	868.317	690.8099999999999	-530.2809999999999	880.847	691.635	-589.038	881.245	646.544	-627.867	842.729	623.383	-699.78	628.64	586.4109999999999	-724.297	721.604	556.427	-0	0	0	-0	0	0	-767.239	557.6950000000001	528.5839999999999	-698.7140000000001	479.785	589.968	-733.098	209.269	593.8	-763.317	343.813	528.9450000000001	-0	0	0	-0	0	0	-588.747	818.71	276.401	-584.939	603.737	320.772	-673.029	657.861	366.025	-0	0	0	-0	0	0	-649.807	510.762	395.503	-0	0	0	-481.088	209.167	334.346	-565.744	323.895	399.303	-0	0	0	-0	0	0	-379.482	79.9764	392.874	-677.985	66.1891	371.392	-603.772	44.6668	428.416	-584.689	42.935	312.721	-474.935	43.1899	332.717	-541.428	133.144	378.335	-647.249	54.8995	417.798	-634.442	54.2063	324.948	-698.7190000000001	77.7359	533.047	-986.693	131.22	585.093	-923.776	97.946	522.648	-893.739	87.4396	632.6180000000001	-791.984	60.4654	604.971	-843.399	166.463	568.5549999999999	-960.701	107.828	536.4829999999999	-947.0890000000001	103	631.528	-0	0	0	-489.336	1057.19	431.88	-200	0	0	-0	0	200	-0	200	0	
598	4.983333	-770.701	1389.24	420.897	-623.859	1481.17	384.508	-735.779	1399.46	238.791	-653.821	1453.65	574.612	-775.938	1219.22	431.975	-521.6799999999999	1300.36	398.917	-699.865	994.176	303.367	-673.748	1004.28	581.724	-491.439	1054.87	394.135	-486.9	1059.26	472.022	-495.216	1106.39	426.569	-720.14	1082.29	150.87	-0	0	0	-0	0	0	-0	0	0	-840.061	841.472	221.992	-827.482	855.9109999999999	263.908	-797.448	836.201	199.119	-544.13	1134.46	673.489	-0	0	0	-0	0	0	-0	0	0	-576.616	867.771	691.564	-530.083	880.458	692.4450000000001	-588.7140000000001	880.8	647.316	-627.078	841.905	624.149	-698.734	627.893	586.717	-723.495	720.6420000000001	557.059	-0	0	0	-0	0	0	-766.478	558.152	527.638	-699.225	479.57	589.532	-739.332	209.738	593.563	-766.679	344.856	528.648	-0	0	0	-0	0	0	-587.704	818.597	276.911	-582.867	603.643	321.088	-671.23	657.373	366.35	-0	0	0	-0	0	0	-647.353	510.391	395.543	-0	0	0	-477.418	209.448	334.281	-562.627	323.819	399.403	-0	0	0	-0	0	0	-375.441	80.2696	392.72	-673.939	66.1172	371.321	-599.641	44.6864	428.557	-580.669	42.7387	312.848	-470.828	43.1582	332.721	-537.627	133.201	378.215	-643.373	54.9115	417.892	-630.25	54.0261	325.314	-707.884	77.4221	532.91	-994.631	136.628	585.011	-932.497	102.19	522.763	-902.579	90.8617	632.6849999999999	-801.477	62.0323	604.842	-850.711	168.979	568.729	-969.043	112.721	536.679	-955.502	106.986	631.035	-0	0	0	-489.17	1057.06	433.079	-200	0	0	-0	0	200	-0	200	0	
